<svg xmlns="http://www.w3.org/2000/svg" viewBox="0 0 100 125" x="0px" y="0px"><title>where</title><path d="M95,47H50a2.99984,2.99984,0,0,0-3,3V95a2.99984,2.99984,0,0,0,3,3H95a2.99984,2.99984,0,0,0,3-3V50A2.99984,2.99984,0,0,0,95,47ZM92,92H53V53H92ZM12.5,2A10.5,10.5,0,1,0,23,12.5,10.5118,10.5118,0,0,0,12.5,2Zm0,15A4.5,4.5,0,1,1,17,12.5,4.50492,4.50492,0,0,1,12.5,17Z"/><text x="0" y="115" fill="#000000" font-size="5px" font-weight="bold" font-family="'Helvetica Neue', Helvetica, Arial-Unicode, Arial, Sans-serif">Created by Leszek Pietrzak</text><text x="0" y="120" fill="#000000" font-size="5px" font-weight="bold" font-family="'Helvetica Neue', Helvetica, Arial-Unicode, Arial, Sans-serif">from the Noun Project</text></svg>